<svg width="24" height="24" viewBox="0 0 24 24" fill="none" xmlns="http://www.w3.org/2000/svg">
  <path d="M8.2 5.2L10.1 8.8C10.35 9.28 10.25 9.86 9.85 10.24L8.65 11.38C9.55 13.2 10.95 14.62 12.75 15.55L13.92 14.35C14.3 13.96 14.88 13.86 15.35 14.12L18.85 16.08C19.38 16.38 19.65 17 19.48 17.58C19.12 18.82 18.05 20 16.55 20C9.6 20 4 14.4 4 7.45C4 5.95 5.18 4.88 6.42 4.52C7 4.35 7.92 4.67 8.2 5.2Z" stroke="currentColor" stroke-width="1.8" stroke-linecap="round" stroke-linejoin="round"></path>
</svg>